<svg xmlns="http://www.w3.org/2000/svg" viewBox="0 0 10.23 9.13"><defs><style>.cls-1{fill:#d31f36;}.cls-2{fill:#111;}.cls-3,.cls-4{fill:#fff;}.cls-3{stroke:#d31f36;stroke-linecap:round;stroke-miterlimit:10;stroke-width:0.4px;}</style></defs><title>ingeniaCar_1</title><g id="Capa_2" data-name="Capa 2"><g id="Capa_1-2" data-name="Capa 1"><path class="cls-1" d="M7.23,3.48A3,3,0,0,0,7,1.72l-1,1a1.37,1.37,0,0,1,0,.75,1.65,1.65,0,0,1-.42.67,1.59,1.59,0,0,1-1,.51,1.32,1.32,0,0,1-1-.33L6.7,1.16a.6.6,0,0,1-.08-.08L6.48.94A3,3,0,0,0,4.34,0,2.73,2.73,0,0,0,2.46.67L1.85,0,1.68.16l.6.67,0,0a2.8,2.8,0,0,0-.81,2A2.88,2.88,0,0,0,2.3,5a2.87,2.87,0,0,0,2.06.87,2.77,2.77,0,0,0,1.87-.67l.61.69L7,5.71,6.4,5l0,0A2.73,2.73,0,0,0,7.23,3.48ZM2.65,2.6a1.48,1.48,0,0,1,.44-.89A1.63,1.63,0,0,1,4,1.21a1.48,1.48,0,0,1,1,.21L2.84,3.56A1.47,1.47,0,0,1,2.65,2.6Z"/><rect class="cls-2" x="7.94" y="3.3" width="0.48" height="1.87" rx="0.24" transform="translate(1.78 -2.39) rotate(18.64)"/><path class="cls-3" d="M6.71,4.16s.92.3,1.36,0"/><path class="cls-1" d="M1.87,5H8.36a1.87,1.87,0,0,1,1.87,1.87v.36a.8.8,0,0,1-.8.8H.8a.8.8,0,0,1-.8-.8V6.86A1.87,1.87,0,0,1,1.87,5Z"/><g id="g34"><path id="path36" class="cls-2" d="M3.54,7.71a1.41,1.41,0,1,1-1.41-1.4h0a1.4,1.4,0,0,1,1.4,1.4"/></g><g id="g38"><path id="path40" class="cls-4" d="M2.84,7.71A.71.71,0,1,1,2.13,7h0a.7.7,0,0,1,.7.7"/></g><g id="g42"><path id="path44" class="cls-2" d="M9.51,7.71A1.41,1.41,0,1,1,8.1,6.31h0a1.4,1.4,0,0,1,1.4,1.4"/></g><g id="g46"><path id="path48" class="cls-4" d="M8.81,7.71A.71.71,0,1,1,8.1,7h0a.71.71,0,0,1,.7.7h0"/></g></g></g></svg>