<svg width="40" height="40" xmlns="http://www.w3.org/2000/svg">
 <g>
  <title>Ingenia Logo</title>
  <ellipse ry="19" rx="19" id="svg_4" cy="20" cx="20" stroke-width="0" fill="#c8102e" stroke="null"/>
  <g stroke="#000" stroke-width="0" fill="#c8102e" id="svgg">
   <path stroke="null" fill-rule="evenodd" fill="#ffffff" d="m10.291631,9.464101c-0.269016,0.297246 0.294483,1.126339 1.579613,2.323881l0.370291,0.345088l-0.779211,0.944714c-4.157768,5.040624 -2.539528,13.141041 3.27478,16.392591c3.610524,2.019066 8.353638,1.826583 11.490028,-0.466434l0.731239,-0.534544l0.982026,1.065205c0.540137,0.585872 0.98433,1.11456 0.987093,1.174904c0.009805,0.214528 0.548627,0.10529 0.788622,-0.159909c0.231374,-0.255657 0.186627,-0.335019 -0.865944,-1.53572l-1.109888,-1.266046l0.63582,-0.726829c2.324407,-2.657189 3.112107,-6.776856 1.96504,-10.277023c-0.525265,-1.602644 -0.407801,-1.627585 -2.575919,0.545731l-1.820924,1.825398l0.043235,1.140751c0.166621,4.398619 -4.983965,7.454725 -8.461429,5.020554c-0.178401,-0.1249 0.857981,-1.231695 5.556282,-5.933286c4.962644,-4.966264 5.75324,-5.815756 5.616758,-6.03568c-0.305341,-0.491967 -2.458257,-2.249059 -3.403432,-2.777614c-3.62046,-2.02466 -8.351994,-1.82632 -11.601373,0.486308l-0.687741,0.489467l-1.060204,-1.164704c-1.141409,-1.253872 -1.257754,-1.315532 -1.654763,-0.876802m10.762343,4.613476c0.351932,0.122005 0.735187,0.256513 0.851664,0.299023c0.14201,0.05179 -1.036514,1.326127 -3.578608,3.869669c-2.084741,2.085859 -3.833541,3.744505 -3.886252,3.685938c-0.324753,-0.360882 -0.601666,-1.757158 -0.539743,-2.721877c0.227163,-3.539322 3.980223,-6.232441 7.152938,-5.132753" id="path0"/>
  </g>
 </g>
</svg>